<?xml version="1.0" encoding="UTF-8"?>
<!DOCTYPE svg PUBLIC "-//W3C//DTD SVG 1.1//EN" "http://www.w3.org/Graphics/SVG/1.1/DTD/svg11.dtd">
<!-- Creator: CorelDRAW 2018 (64-Bit) -->
<svg xmlns="http://www.w3.org/2000/svg" xml:space="preserve" width="175.1mm" height="126.615mm" version="1.1" style="shape-rendering:geometricPrecision; text-rendering:geometricPrecision; image-rendering:optimizeQuality; fill-rule:evenodd; clip-rule:evenodd"
viewBox="0 0 26542.12 19192.73"
 xmlns:xlink="http://www.w3.org/1999/xlink">
 <defs>
  <style type="text/css">
   <![CDATA[
    .str0 {stroke:white;stroke-width:14.76;stroke-linecap:round;stroke-linejoin:round;stroke-miterlimit:22.926}
    .fil24 {fill:none}
    .fil23 {fill:#CA2229}
    .fil25 {fill:white;fill-rule:nonzero}
    .fil4 {fill:url(#id0)}
    .fil10 {fill:url(#id1)}
    .fil5 {fill:url(#id2)}
    .fil12 {fill:url(#id3)}
    .fil0 {fill:url(#id4)}
    .fil2 {fill:url(#id5)}
    .fil6 {fill:url(#id6)}
    .fil8 {fill:url(#id7)}
    .fil14 {fill:url(#id8)}
    .fil3 {fill:url(#id9)}
    .fil1 {fill:url(#id10)}
    .fil22 {fill:url(#id11)}
    .fil15 {fill:url(#id12);fill-rule:nonzero}
    .fil20 {fill:url(#id13);fill-rule:nonzero}
    .fil21 {fill:url(#id14);fill-rule:nonzero}
    .fil18 {fill:url(#id15);fill-rule:nonzero}
    .fil19 {fill:url(#id16);fill-rule:nonzero}
    .fil13 {fill:url(#id17);fill-rule:nonzero}
    .fil16 {fill:url(#id18);fill-rule:nonzero}
    .fil9 {fill:url(#id19);fill-rule:nonzero}
    .fil7 {fill:url(#id20);fill-rule:nonzero}
    .fil11 {fill:url(#id21);fill-rule:nonzero}
    .fil17 {fill:url(#id22);fill-rule:nonzero}
   ]]>
  </style>
  <linearGradient id="id0" gradientUnits="userSpaceOnUse" x1="80.69" y1="15517.45" x2="5024.52" y2="15517.45">
   <stop offset="0" style="stop-opacity:1; stop-color:#EEE789"/>
   <stop offset="0.45098" style="stop-opacity:1; stop-color:#D0BA61"/>
   <stop offset="1" style="stop-opacity:1; stop-color:#B18C38"/>
  </linearGradient>
  <linearGradient id="id1" gradientUnits="userSpaceOnUse" xlink:href="#id0" x1="19038.81" y1="15314.87" x2="20123.77" y2="15314.87">
  </linearGradient>
  <linearGradient id="id2" gradientUnits="userSpaceOnUse" xlink:href="#id0" x1="5628.84" y1="16719.05" x2="9508.24" y2="16719.05">
  </linearGradient>
  <linearGradient id="id3" gradientUnits="userSpaceOnUse" xlink:href="#id0" x1="20693.6" y1="15654.8" x2="23062.45" y2="15654.8">
  </linearGradient>
  <linearGradient id="id4" gradientUnits="userSpaceOnUse" xlink:href="#id0" x1="7465.95" y1="2845.62" x2="13076.46" y2="2845.62">
  </linearGradient>
  <linearGradient id="id5" gradientUnits="userSpaceOnUse" xlink:href="#id0" x1="7465.95" y1="8797.62" x2="13076.46" y2="8797.62">
  </linearGradient>
  <linearGradient id="id6" gradientUnits="userSpaceOnUse" xlink:href="#id0" x1="9934.02" y1="15517.45" x2="14273.56" y2="15517.45">
  </linearGradient>
  <linearGradient id="id7" gradientUnits="userSpaceOnUse" xlink:href="#id0" x1="14857.24" y1="15476.2" x2="18242.45" y2="15476.2">
  </linearGradient>
  <linearGradient id="id8" gradientUnits="userSpaceOnUse" xlink:href="#id0" x1="23419.56" y1="16101.1" x2="26461.44" y2="16101.1">
  </linearGradient>
  <linearGradient id="id9" gradientUnits="userSpaceOnUse" xlink:href="#id0" x1="13465.68" y1="2845.62" x2="19076.18" y2="2845.62">
  </linearGradient>
  <linearGradient id="id10" gradientUnits="userSpaceOnUse" xlink:href="#id0" x1="13465.68" y1="8797.62" x2="19076.18" y2="8797.62">
  </linearGradient>
  <radialGradient id="id11" gradientUnits="userSpaceOnUse" gradientTransform="matrix(6.53731E-06 0.952212 -1.05147 6.53733E-06 19320 -6403)" cx="13018.04" cy="5993.41" r="1648.27" fx="13018.04" fy="5993.41">
   <stop offset="0" style="stop-opacity:1; stop-color:#35348E"/>
   <stop offset="1" style="stop-opacity:1; stop-color:#323086"/>
  </radialGradient>
  <linearGradient id="id12" gradientUnits="userSpaceOnUse" x1="23313.41" y1="16101.1" x2="26542.12" y2="16101.1">
   <stop offset="0" style="stop-opacity:1; stop-color:#B4913B"/>
   <stop offset="0.501961" style="stop-opacity:1; stop-color:#ECE587"/>
   <stop offset="1" style="stop-opacity:1; stop-color:#B4903B"/>
  </linearGradient>
  <linearGradient id="id13" gradientUnits="userSpaceOnUse" xlink:href="#id12" x1="7425.55" y1="2845.62" x2="13116.83" y2="2845.62">
  </linearGradient>
  <linearGradient id="id14" gradientUnits="userSpaceOnUse" xlink:href="#id12" x1="13425.27" y1="2845.62" x2="19116.56" y2="2845.62">
  </linearGradient>
  <linearGradient id="id15" gradientUnits="userSpaceOnUse" xlink:href="#id12" x1="13425.27" y1="8797.65" x2="19116.56" y2="8797.65">
  </linearGradient>
  <linearGradient id="id16" gradientUnits="userSpaceOnUse" xlink:href="#id12" x1="7425.57" y1="8797.65" x2="13116.83" y2="8797.65">
  </linearGradient>
  <linearGradient id="id17" gradientUnits="userSpaceOnUse" xlink:href="#id12" x1="20612.79" y1="15654.77" x2="23156.99" y2="15654.77">
  </linearGradient>
  <linearGradient id="id18" gradientUnits="userSpaceOnUse" xlink:href="#id12" x1="-0" y1="15517.45" x2="5105.27" y2="15517.45">
  </linearGradient>
  <linearGradient id="id19" gradientUnits="userSpaceOnUse" xlink:href="#id12" x1="14776.51" y1="15476.17" x2="18323.08" y2="15476.17">
  </linearGradient>
  <linearGradient id="id20" gradientUnits="userSpaceOnUse" xlink:href="#id12" x1="9853.27" y1="15517.42" x2="14389.06" y2="15517.42">
  </linearGradient>
  <linearGradient id="id21" gradientUnits="userSpaceOnUse" xlink:href="#id12" x1="18958.2" y1="15314.84" x2="20204.48" y2="15314.84">
  </linearGradient>
  <linearGradient id="id22" gradientUnits="userSpaceOnUse" xlink:href="#id12" x1="5508.53" y1="16719.05" x2="9626.25" y2="16719.05">
  </linearGradient>
 </defs>
 <g id="Layer_x0020_1">
  <metadata id="CorelCorpID_0Corel-Layer"/>
  <g id="_2296320542656">
   <path class="fil0" d="M8811.67 5650.85l4264.76 0 0 -4264.74c0,-740.16 -605.54,-1345.75 -1345.68,-1345.75l0 0 -4264.86 0 0 4264.71c0,740.16 605.63,1345.78 1345.78,1345.78z"/>
   <path class="fil1" d="M19076.18 11602.91l0 -4264.74c0,-740.16 -605.54,-1345.8 -1345.78,-1345.8l-4264.74 0 0 4264.76c0,740.15 605.62,1345.78 1345.88,1345.78l0 0 4264.65 0z"/>
   <path class="fil2" d="M13076.43 5992.36l-4264.76 0c-740.15,0 -1345.78,605.63 -1345.78,1345.8l0 4264.74 4264.86 0c740.13,0 1345.68,-605.63 1345.68,-1345.78l0 0 0 -4264.76z"/>
   <path class="fil3" d="M13465.65 5650.85l4264.74 0c740.24,0 1345.78,-605.62 1345.78,-1345.78l0 -4264.71 -4264.65 0c-740.26,0 -1345.88,605.59 -1345.88,1345.75l0 0 0 4264.74z"/>
   <polygon class="fil4" points="5024.49,13158.83 4008.32,13158.83 2552.64,15822.89 1090.06,13158.83 80.64,13158.83 80.64,17876 1090.06,17876 1090.06,14937.23 2552.64,17601.5 4008.32,14937.23 4008.32,17876 5024.49,17876 "/>
   <path class="fil5" d="M8485.18 14326.08l-885.78 2492.46 -933.92 -2492.46 -1036.71 0 1476.22 3584.3 -123.65 261.06c-75.55,130.32 -226.57,192.1 -418.78,192.1l0 0c-116.78,0 -295.33,-61.79 -467,-157.95l0 0 -212.81 686.7c240.32,130.54 597.31,219.69 892.64,219.69 556.16,0 1009.3,-363.86 1277.12,-1057.41l0 0 1455.68 -3728.49 -1023.03 0z"/>
   <path class="fil6" d="M9933.96 15513.91c0,1325.29 1153.58,2444.61 2506.26,2444.61 714.08,0 1373.16,-309 1833.31,-789.73l0 0 -734.62 -659.1c-274.7,315.84 -666.07,528.55 -1098.69,528.55l0 0c-789.72,0 -1462.58,-700.22 -1462.58,-1524.33l0 0c0,-817 672.86,-1517.45 1462.58,-1517.45l0 0c432.62,0 823.99,212.94 1098.69,528.89l0 0 734.62 -659.3c-460.15,-487.54 -1119.23,-789.72 -1833.31,-789.72l0 0c-1352.68,0 -2506.26,1112.44 -2506.26,2437.58l0 0z"/>
   <path class="fil7" d="M9853.27 15513.98c0,-683.93 296.89,-1312.83 767.97,-1771.02 472.21,-459.31 1119.86,-747.32 1818.98,-747.32 362.69,0 711.8,75.67 1029.45,212.43 327.25,140.96 621.31,347.19 862.49,602.75l56.49 59.83 -857 769.04 -53.71 -61.74c-134.41,-154.66 -298.22,-283.32 -481.56,-371.55 -170.77,-82.2 -358.86,-129.18 -556.16,-129.18 -371.91,0 -716.75,165.23 -968.87,426.81 -253.26,262.8 -412.96,622.55 -412.96,1009.94 0,390.45 159.37,751.62 412.2,1015.15 252.22,262.88 597.37,428.46 969.63,428.46 197.27,0 385.35,-46.98 556.1,-129.15 183.37,-88.22 347.22,-216.85 481.62,-371.45l53.71 -61.74 857.41 769.24 -57.54 60.13c-242.34,253.17 -538.12,460.19 -867.39,601.98 -316.1,136.14 -663.25,212.55 -1023.91,212.55 -698.71,0 -1345.91,-289.34 -1818.03,-749.79 -471.65,-460.02 -768.92,-1091.05 -768.92,-1775.39zm880.18 -1655.65c-440.88,428.8 -718.75,1016.77 -718.75,1655.65 0,639.41 278.25,1229.44 719.7,1660.03 443.09,432.15 1050.35,703.71 1705.81,703.71 338.29,0 663.84,-71.64 960.22,-199.29 283.63,-122.13 540.59,-295.47 756.51,-506.23l-612.38 -549.44c-137.62,144.19 -299.51,264.72 -478.26,350.72 -192.45,92.6 -404.26,145.55 -626.08,145.55 -417.69,0 -804.03,-184.86 -1085.62,-478.32 -280.7,-292.59 -457.64,-693.48 -457.64,-1126.73 0,-430.31 177.26,-829.81 458.4,-1121.52 281.57,-292.13 667.6,-476.67 1084.86,-476.67 221.92,0 433.66,52.95 626.14,145.6 178.75,86.01 340.61,206.58 478.2,350.79l612.79 -549.9c-214.52,-212.2 -469.71,-384.72 -751.4,-506.04 -297.83,-128.24 -625.3,-199.16 -965.74,-199.16 -655.98,0 -1263.64,270.26 -1706.76,701.25z"/>
   <path class="fil8" d="M18242.42 17876l0 -2259.06c0,-803.36 -549.38,-1373.28 -1318.48,-1373.28l0 0c-453.16,0 -844.53,206.06 -1064.22,515.11l0 0 0 -1682.44 -1002.52 0 0 4799.66 1002.52 0 0 -2101.14c0,-384.48 322.63,-686.58 741.6,-686.58l0 0c398.13,0 672.83,302.1 672.83,741.59l0 0 0 2046.13 968.27 0z"/>
   <path class="fil9" d="M18323.08 15616.95l0 2339.81 -1129.58 0 0 -2126.85c0,-199.06 -60.89,-365.57 -165.86,-481.26 -103.23,-113.76 -250.89,-179.64 -426.39,-179.64 -188.25,0 -354.11,66.95 -472.47,176.56 -117.22,108.55 -188.4,259.78 -188.4,429.33l0 2181.86 -1163.87 0 0 -4961.13 1163.87 0 0 1547.07c97.39,-93.69 211.99,-173.4 339.68,-235.18 190.27,-92.06 409.55,-144.56 643.91,-144.56 407.49,0 757.52,151.9 1006.07,410.84 247.49,257.72 393.04,620.38 393.04,1043.16zm-161.44 2178.37l0 -2178.37c0,-379.94 -128.74,-703.65 -347.6,-931.58 -218.39,-227.5 -527.96,-360.98 -890.08,-360.98 -209.87,0 -405.27,46.55 -573.92,128.16 -174.5,84.42 -320.66,206.32 -424.83,352.81l-146.28 205.7 0 -1854 -841.01 0 0 4638.26 841.01 0 0 -2020.42c0,-215.75 90.95,-408.53 240.76,-547.26 147.54,-136.62 351.84,-220.07 581.55,-220.07 222.86,0 411.85,85.31 545.53,232.63 131.77,145.19 208.15,349.43 208.15,589.7l0 1965.41 806.71 0z"/>
   <path class="fil10" d="M19080.09 17876l1002.52 0 0 -3549.92 -1002.52 0 0 3549.92zm-41.28 -4586.75c0,302.2 240.43,549.29 549.31,549.29l0 0c295.33,0 535.65,-247.1 535.65,-549.29l0 0c0,-281.47 -240.32,-535.53 -535.65,-535.53l0 0c-308.88,0 -549.31,254.05 -549.31,535.53z"/>
   <path class="fil11" d="M19080.09 14245.36l1083.24 0 0 3711.36 -1163.96 0 0 -3711.36 80.72 0zm921.81 161.44l-841.09 0 0 3388.49 841.09 0 0 -3388.49zm-1043.69 -1117.55c0,-165.16 71.5,-321.96 188.43,-436 112.69,-109.85 267.73,-180.25 441.58,-180.25 168.15,0 320.66,71.26 431.77,182.35l0.33 0c113.58,113.58 184.17,269.51 184.17,433.89 0,172.8 -69,330.12 -180.25,444.23 -111.76,114.6 -266.04,185.78 -436.03,185.78 -176.03,0 -332.79,-70.17 -445.94,-183.31 -114.34,-114.34 -184.07,-272.67 -184.07,-446.7zm300.65 -320.63c-86.39,84.23 -139.21,199.59 -139.21,320.63 0,129.76 51.81,247.6 136.77,332.56 83.95,83.95 200.59,136.02 331.8,136.02 125.04,0 238.52,-52.33 320.66,-136.58 82.81,-84.93 134.18,-202.47 134.18,-332 0,-120.39 -52.51,-235.38 -136.88,-319.76 -82.11,-82.31 -194.51,-135.05 -317.96,-135.05 -129.85,0 -245.47,52.42 -329.36,134.18z"/>
   <path class="fil12" d="M21181.1 13351.04l0 975.04 -487.54 0 0 810.23 487.54 0 0 1737.25c0,638.59 439.39,1084.97 1064.19,1084.97 288.46,0 611.18,-123.57 817.12,-309l-240.2 -652.4c-68.77,68.73 -205.97,116.75 -343.47,116.75l0 0c-185.31,0 -336.36,-164.77 -336.36,-398.24l0 0 0 -1579.33 768.98 0 0 -810.23 -768.98 0 0 -975.04 -961.28 0z"/>
   <path class="fil13" d="M23116.38 17709.38c-110.69,99.62 -252.43,182.46 -404.7,240.03 -151.08,57.13 -313.19,89.77 -466.33,89.77 -334.94,0 -621.17,-120.72 -824.17,-327.65 -202.44,-206.38 -320.86,-497.13 -320.86,-837.92l0 -1656.53 -487.54 0 0 -971.69 487.54 0 0 -975.01 1122.81 0 0 975.01 769.01 0 0 971.69 -769.01 0 0 1498.5c0,95.16 29.26,175.34 76.61,231.39 45.84,54.27 109.37,86.14 179.07,86.14 59.54,0 118.73,-10.23 170.24,-27.71 49.02,-16.64 90.09,-39.4 116.01,-65.3l89.13 -89.13 302.8 821.87 -40.61 36.53zm-461.42 89.36c115.35,-43.6 223.33,-103.29 312.4,-174.26l-184.7 -501.33c-25.33,13.29 -52.89,25 -81.89,34.85 -67.94,23.07 -145.17,36.56 -221.96,36.56 -118.51,0 -225.57,-53.08 -301.98,-143.56 -71.18,-84.25 -115.13,-200.71 -115.13,-335.41l0 -1659.94 769.01 0 0 -648.82 -769.01 0 0 -975.01 -799.93 0 0 975.01 -487.54 0 0 648.82 487.54 0 0 1817.97c0,297.27 101.17,548.73 274.15,725.07 172.9,176.23 419.17,279.06 709.44,279.06 134.24,0 276.65,-28.71 409.61,-79.01z"/>
   <path class="fil14" d="M23577.43 15397.26c6.87,700.45 569.92,899.52 1297.85,1078.06l0 0c363.89,96.06 624.84,164.82 624.84,384.51l0 0c0,157.92 -192.42,267.82 -460.15,267.82l0 0c-473.74,0 -872.1,-171.56 -1187.83,-398.24l0 0 -432.62 693.57c425.75,343.23 1030.04,535.56 1599.84,535.56 872.13,0 1442.04,-446.38 1442.04,-1146.73 0,-775.97 -679.8,-981.92 -1290.88,-1139.84l0 0c-480.75,-130.51 -624.92,-185.43 -624.92,-377.62l0 0c0,-123.56 171.68,-212.91 418.87,-212.91l0 0c302.18,0 672.94,116.76 995.66,315.84l0 0 405.01 -713.99c-391.25,-261.06 -892.52,-439.61 -1400.67,-439.61l0 0c-837.75,0 -1393.9,480.76 -1387.05,1153.59l0 0z"/>
   <path class="fil15" d="M23351.07 17380.34l478.12 -766.45 69.93 50.2c162.3,116.49 347.19,217.9 553.44,287.04 179.13,60.04 375.14,95.72 587.41,95.72 120.16,0 221.42,-23.59 290.99,-64.07 55.62,-32.35 88.43,-75.17 88.43,-123.01 0,-157.45 -235.12,-219.58 -563.25,-306.27l-0.79 -0.29c-371.77,-91.19 -702.25,-188.25 -944.82,-354.72 -254.11,-174.38 -409.79,-419.52 -413.5,-800.54l-0.06 -12.49 -0.32 -0.32c0,-354.98 146.63,-659.64 403.64,-876.77 252.66,-213.47 611.77,-340.62 1041.63,-344.93l22.22 -0.12 0.32 -0.32c253.17,0 504.73,42.91 742.68,117.58 255.1,80.01 494.34,196.48 702.84,335.48l62.3 41.52 -483.31 851.97 -71.09 -43.84c-154.75,-95.5 -321.61,-171.53 -486.43,-223.8 -163.36,-51.84 -323.75,-79.85 -467,-79.85 -110.44,0 -202.17,18.9 -264.97,50.83 -46.28,23.5 -73.2,52.05 -73.2,81.38 0,63.19 24.77,104.5 90.86,141.68 88.28,49.64 239.97,94.44 474.45,158.06 312.11,80.92 642.21,174.26 898.89,349.55 267.2,182.49 451.61,448.46 451.61,868.16 0,375.23 -152.86,683.03 -422.7,897.61 -265.77,211.32 -644.35,329.83 -1100.05,329.83 -296.63,0 -602.88,-50.84 -890.02,-146.97 -280.4,-93.85 -542.68,-231.13 -760.29,-406.56l-55.65 -44.88 37.67 -60.42zm524.8 -536.83l-349.57 560.37c191.04,142.64 415.34,255.8 654.13,335.73 269.86,90.34 558.51,138.14 838.94,138.14 418.6,0 762.49,-105.82 999.83,-294.51 230.74,-183.52 361.5,-448.03 361.5,-771.5 0,-356.11 -155.55,-581.18 -380.99,-735.12 -235.73,-160.98 -550.81,-249.69 -849.38,-326.86l-0.94 0c-246.22,-66.79 -407.11,-114.72 -511.03,-173.18 -126.15,-70.96 -173.47,-153.36 -173.47,-282.29 0,-94.74 59.65,-173.08 162.16,-225.15 84.66,-43.02 201.77,-68.5 337.44,-68.5 159.6,0 336.61,30.7 515.58,87.46 151.02,47.92 304.36,114.93 450.54,198.21l327.06 -576.52c-181.31,-113.23 -384.13,-208.18 -598.42,-275.4 -222.55,-69.82 -457.87,-109.96 -694.75,-109.96l0 -0.32 -21.27 0.12c-390.52,3.93 -714.06,117.1 -938.89,307.05 -220.42,186.25 -346.22,448.17 -346.22,753.85l-0.33 0 0.06 11.52c3.12,319.29 132.44,523.93 343.53,668.78 222.37,152.61 537.09,244.4 892.72,331.62l2.73 0.7c398.62,105.21 684.03,180.67 684.03,462.01 0,109.59 -62.74,200.44 -169.18,262.33 -93.57,54.48 -223.13,86.19 -371.68,86.19 -229.63,0 -442.82,-38.97 -638.5,-104.56 -193.03,-64.7 -368.48,-155.45 -525.61,-260.22z"/>
   <path class="fil16" d="M80.72 13078.08l1057.02 0 1414.75 2577.32 1408.36 -2577.32 1144.42 0 0 4878.71 -1177.62 0 0 -2704.17 -1374.99 2516.38 -1381.82 -2517.32 0 2705.1 -1170.84 0 0 -4878.71 80.72 0zm961.81 161.44l-881.09 0 0 4555.84 847.97 0 0 -2858.16 151.34 -38.77 1391.74 2535.47 1385.26 -2535.15 151.34 38.46 0 2858.16 854.75 0 0 -4555.84 -887.93 0 -1503.25 2751 -1510.13 -2751z"/>
   <path class="fil17" d="M5805.81 18868.66l242.47 -781.99 86.77 48.64c82.72,46.34 166.32,84.05 242.38,109.78l0.32 0c71.47,24.16 135.64,37.76 184.89,37.76 87.02,0 163.15,-13.63 224.05,-41.58 52.86,-24.25 95.04,-59.92 123.37,-107.38l107 -225.87 -1508.54 -3662.62 1212.63 0 876.09 2338.49 831.05 -2338.49 1197.95 0 -1498.66 3838.52c-138.3,357.78 -325.28,632.16 -550.16,818.32 -232.03,192.09 -503.15,290.49 -802.09,290.49 -152.86,0 -321.86,-23.04 -483.9,-62.92 -163.18,-40.17 -320.14,-97.94 -447.19,-166.86l-57.92 -31.48 19.46 -62.8zm338.01 -546.81l-164.19 529.54c103.15,49.19 224.15,91.01 350.28,122.04 149.01,36.65 304.55,57.86 445.44,57.86 260.63,0 497.03,-85.81 699.3,-253.26 204.11,-169 374.99,-421.19 502.92,-752.43l1412.71 -3618.77 -848.36 0 -940.48 2646.46 -991.5 -2646.46 -860.93 0 1444.06 3505.96 -138.8 292.92 -3.18 5.99c-45.63,78.79 -113.14,137.09 -197.53,175.84 -83.19,38.15 -181.85,56.75 -290.9,56.75 -66.44,0 -148.4,-16.77 -236.59,-46.61 -58.62,-19.92 -120.34,-45.58 -182.22,-75.82z"/>
   <path class="fil18" d="M17730.39 6032.75l-4224.38 0 0 4224.38c0,358.93 146.9,685.32 383.49,921.93 236.61,236.59 562.99,383.49 921.93,383.49l4224.38 0 0 -4224.38c0,-358.98 -146.9,-685.37 -383.46,-921.93 -236.61,-236.61 -563.02,-383.49 -921.96,-383.49zm-4264.74 -80.75l4264.74 0c381.19,0 727.83,155.96 979.03,407.17 251.17,251.17 407.14,597.77 407.14,979l0 4305.11 -4305.12 0c-381.19,0 -727.8,-155.96 -979,-407.17 -251.2,-251.19 -407.17,-597.8 -407.17,-978.98l0 -4305.12 40.38 0z"/>
   <path class="fil19" d="M8811.7 5952l4305.12 0 0 4305.12c0,381.19 -155.96,727.8 -407.17,978.98 -251.2,251.2 -597.8,407.17 -979,407.17l-4305.09 0 0 -4305.11c0,-381.23 155.98,-727.83 407.14,-979 251.2,-251.2 597.81,-407.17 979,-407.17zm4224.38 80.75l-4224.38 0c-358.93,0 -685.32,146.88 -921.93,383.49 -236.56,236.56 -383.46,562.92 -383.46,921.93l0 4224.38 4224.35 0c358.95,0 685.34,-146.9 921.93,-383.49 236.61,-236.61 383.49,-562.99 383.49,-921.93l0 -4224.38z"/>
   <path class="fil20" d="M11730.66 80.75l-4224.38 0 0 4224.38c0,358.93 146.9,685.29 383.49,921.9 236.61,236.59 562.99,383.49 921.93,383.49l4224.38 0 0 -4224.38c0,-358.96 -146.88,-685.34 -383.46,-921.9 -236.59,-236.61 -563.01,-383.49 -921.96,-383.49zm-4264.74 -80.75l4264.74 0c381.2,0 727.83,155.96 979.03,407.17 251.17,251.17 407.14,597.75 407.14,978.97l0 4305.12 -4305.12 0c-381.19,0 -727.8,-155.98 -979,-407.17 -251.19,-251.2 -407.15,-597.78 -407.15,-978.97l0 -4305.12 40.37 0z"/>
   <path class="fil21" d="M14811.43 0l4305.12 0 0 4305.12c0,381.19 -155.96,727.77 -407.17,978.97 -251.2,251.19 -597.81,407.17 -979,407.17l-4305.12 0 0 -4305.12c0,-381.22 155.96,-727.8 407.14,-978.97 251.2,-251.2 597.84,-407.17 979.03,-407.17zm4224.38 80.75l-4224.38 0c-358.93,0 -685.35,146.88 -921.96,383.49 -236.56,236.56 -383.46,562.93 -383.46,921.9l0 4224.38 4224.38 0c358.93,0 685.34,-146.9 921.93,-383.49 236.59,-236.61 383.49,-562.96 383.49,-921.9l0 -4224.38z"/>
   <path class="fil22" d="M15684.14 2957.23l-4826.13 0c-93.57,0 -173.43,48.96 -209.14,127.97l0 0c-35.7,79.02 -17.13,165.33 49.07,225.74l0 0 2413.07 2209.49c88.15,80.78 232.01,80.78 320.05,0l0 0 2413.07 -2209.49c66.21,-60.41 84.96,-146.72 49.05,-225.74l0 0c-35.7,-79.01 -115.43,-127.97 -209.03,-127.97zm363.48 528.87l-2413.19 2209.4c-88.04,80.75 -88.04,212.4 0,293.06l0 0 2413.19 2209.49c66.18,60.44 160.27,77.57 246.58,44.85l0 0c86.51,-32.73 139.76,-105.8 139.76,-191.49l0 0 0 -4418.77c0,-85.57 -53.25,-158.75 -139.76,-191.57l0 0c-28.95,-10.99 -58.78,-16.31 -88.15,-16.31l0 0c-58.19,0 -114.43,21.02 -158.43,61.35zm-5799.75 -45.04c-86.42,32.82 -139.68,106 -139.68,191.57l0 0 0 4418.77c0,85.69 53.27,158.77 139.68,191.49l0 0c86.39,32.71 180.49,15.58 246.56,-44.85l0 0 2413.19 -2209.49c88.15,-80.66 88.15,-212.31 0,-293.06l0 0 -2413.19 -2209.4c-43.91,-40.32 -100.14,-61.35 -158.31,-61.35l0 0c-29.35,0 -59.22,5.32 -88.25,16.31zm2863.13 2681.81l-2413.07 2209.4c-66.2,60.54 -84.77,146.72 -49.07,225.84l0 0c34.99,77.37 112.16,125.8 203.09,127.75l0 0 4849.64 -0.41c85.89,-5.73 158.12,-53.27 191.57,-127.34l0 0c35.91,-79.13 17.16,-165.3 -49.05,-225.84l0 0 -2413.07 -2209.4c-44.03,-40.43 -102,-60.53 -159.98,-60.53l0 0c-58.09,0 -116.05,20.1 -160.07,60.53l0 0z"/>
   <polygon class="fil23" points="14655.26,6620.77 13963.13,7020.35 13271.08,7419.93 12578.96,7020.35 11886.84,6620.77 11886.84,5821.62 11886.84,5022.45 12578.96,4622.87 13271.08,4223.3 13963.13,4622.87 14655.26,5022.45 14655.26,5821.62 "/>
   <polygon class="fil24 str0" points="14374.34,6458.62 14374.34,5184.64 13271.02,4547.72 12167.83,5184.64 12167.83,6458.62 13271.02,7095.51 "/>
   <path class="fil25" d="M12790.32 5073.29l960.67 0c5.24,0.62 8,3.41 8,8.32l0 91.13c0,5.53 -2.76,8.29 -8,8.29l-361.53 0 0 8.03c51.31,27.68 91.13,84.52 119.96,170.82l3.8 29.15 237.76 0c5.24,0.61 8,3.41 8,8.32l0 91.42c0,5.24 -2.76,8 -8,8l-228.33 0c0,102.21 -62.8,201.74 -187.87,298.41 -111.23,63.73 -189.95,95.63 -236.73,95.63 0,2.77 -2.79,3.82 -8.02,3.82l515.75 668.1 0 8.32 -196.19 0c-1.74,0 -201.35,-258.49 -597.83,-775.88l0 -3.77 61.77 0c219.3,0 351.04,-79.13 395.07,-236.76 2.76,-19.07 4.11,-34.38 4.11,-45.75l0 -12.13 -482.4 0c-5.23,0 -7.99,-2.76 -7.99,-8l0 -91.42c0.7,-5.56 3.49,-8.32 7.99,-8.32l478.29 0c-16.33,-61.35 -50.58,-111.64 -103.64,-150.11 -73.18,-38.49 -139.68,-57.89 -200.01,-57.89l-174.64 0c-5.23,0 -7.99,-2.76 -7.99,-8.29l0 -91.13c0.7,-5.55 3.49,-8.32 7.99,-8.32z"/>
  </g>
 </g>
</svg>
